<svg width="380" height="377" viewBox="0 0 380 377" fill="none" xmlns="http://www.w3.org/2000/svg">
<path d="M48.3125 204.343C48.3125 155.343 77.7295 125.166 109.304 125.166C145.094 125.166 164.019 154.275 164.019 196.678C164.035 202.43 163.576 208.174 162.647 213.852H78.3178C80.8673 240.633 95.968 255.867 117.541 255.867C128.76 255.574 139.574 251.655 148.33 244.708L158.92 266.637C146.098 277.091 130.127 283.03 113.52 283.52C76.9451 283.52 48.3125 254.411 48.3125 204.343ZM137.152 189.789C137.152 166.695 128.033 152.529 109.99 152.529C94.4972 152.529 80.5732 165.628 78.2198 189.789H137.152Z" fill="black"/>
<path d="M193.734 240.732V62.874H224.72V242.575C224.72 251.308 228.25 254.316 231.486 254.316C233.108 254.357 234.727 254.161 236.291 253.734L240.213 280.126C235.042 282.298 229.453 283.325 223.838 283.134C201.775 283.522 193.734 267.027 193.734 240.732Z" fill="black"/>
<path d="M258.777 204.345C258.777 155.247 285.841 125.168 314.866 125.168C321.536 125.276 328.103 126.815 334.113 129.68C340.123 132.545 345.433 136.666 349.676 141.76L348.401 117.502V62.874H379.485V279.447H354.088L351.637 263.146H350.853C346.365 268.959 340.696 273.776 334.21 277.286C327.724 280.796 320.566 282.92 313.199 283.522C280.154 283.522 258.777 254.413 258.777 204.345ZM348.401 237.044V167.085C345.057 163.229 340.925 160.12 336.276 157.962C331.628 155.804 326.569 154.648 321.436 154.568C304.668 154.568 290.744 172.713 290.744 204.151C290.744 235.589 301.726 254.413 320.847 254.413C326.548 254.056 332.065 252.275 336.883 249.238C341.701 246.201 345.664 242.006 348.401 237.044Z" fill="black"/>
<path d="M279.07 255.113C263.144 327.215 230.297 350.339 164.106 336.045L84.6765 318.893C18.4854 304.599 -1.62043 270.041 14.306 197.939L33.4178 111.416C49.3443 39.3136 82.1913 16.1901 148.382 30.4835L227.812 47.6357C294.003 61.9292 304.897 85.2398 288.971 157.342" stroke="black" stroke-width="1.5" stroke-linecap="round" stroke-linejoin="round"/>
</svg>
